<svg xmlns="http://www.w3.org/2000/svg" width="137.635" height="82" viewBox="0 0 137.635 82">
  <g id="logo" transform="translate(0.001)">
    <rect id="Rectangle_1" data-name="Rectangle 1" width="40.73" height="40.73" transform="translate(0.28 0.281)" fill="#fff"/>
    <path id="Path_1" data-name="Path 1" d="M0,41.291V0H41.29V41.291Zm41.011-.28v0ZM.559,40.731h40.17V.561H.559v40.17Z" fill="#fff"/>
    <path id="Path_2" data-name="Path 2" d="M17.438,25.684H28.092c3.72,0,6.708,1.876,6.708,5.629a4.336,4.336,0,0,1-3.847,4.578v.064a5.412,5.412,0,0,1,4.864,5.6c0,5.66-4.038,6.774-8.744,6.774H17.438Zm4.262,9.1h5.056c1.876,0,3.594-.732,3.594-2.895,0-1.718-1.114-2.83-3.594-2.83H21.7Zm0,9.795h5.533c2.576,0,4.134-.8,4.134-3.149,0-2.544-1.59-3.466-4.166-3.466H21.7Z" transform="translate(-10.927 -16.093)" fill="#154f3c"/>
    <path id="Path_3" data-name="Path 3" d="M73.808,42.587h3.881v2.225h.063c.923-1.844,2.7-2.606,4.961-2.606V46.15c-2.64,0-5.024,1.24-5.024,4.737v7.792H73.808Z" transform="translate(-46.248 -26.446)" fill="#154f3c"/>
    <path id="Path_4" data-name="Path 4" d="M84.068,12.583H84.4c.341,0,.606-.157.606-.518a.569.569,0,0,0-.613-.626c-.47,0-.62.409-.653.8l-.906-.191a1.5,1.5,0,0,1,1.627-1.368,1.293,1.293,0,0,1,1.457,1.239.907.907,0,0,1-.763.973V12.9a1.085,1.085,0,0,1,.879,1.144c0,.96-.79,1.423-1.675,1.423a1.434,1.434,0,0,1-1.607-1.593h.872a.729.729,0,0,0,.762.831.66.66,0,0,0,.695-.715A.62.62,0,0,0,84.4,13.3h-.333v-.722Z" transform="translate(-51.853 -6.689)" fill="#154f3c"/>
    <path id="Path_5" data-name="Path 5" d="M93.307,10.9h2.587l-.088.8H94.016l-.143.966a1.243,1.243,0,0,1,.831-.327,1.428,1.428,0,0,1,1.457,1.586,1.608,1.608,0,0,1-1.723,1.682,1.427,1.427,0,0,1-1.614-1.361l.953-.074a.675.675,0,0,0,.667.715c.558,0,.763-.47.763-.953,0-.613-.314-.872-.777-.872a.651.651,0,0,0-.66.443l-.79-.061Z" transform="translate(-58.163 -6.827)" fill="#154f3c"/>
    <path id="Path_6" data-name="Path 6" d="M119.929,50.415c-1.1,0-1.224.031-1.224.878a4.893,4.893,0,0,0,4.894,4.864,5.553,5.553,0,0,0,3.264-1.067c.721-.5,1.192-1.1,1.82-1.1a.785.785,0,0,1,.816.785,3.412,3.412,0,0,1-1.475,2.039,8.12,8.12,0,0,1-5.491,2.134,7.84,7.84,0,0,1-7.939-8.064c0-4.989,3.451-8.566,8.315-8.566,4.111,0,6.683,2.51,6.683,6.495,0,1.475-.377,1.6-1.789,1.6h-7.875Zm5.083-1.82c.754,0,1-.094,1-.6a3.564,3.564,0,0,0-3.64-3.64A3.5,3.5,0,0,0,118.862,48c0,.5.22.6.972.6Z" transform="translate(-71.804 -26.517)" fill="#fff"/>
    <path id="Path_7" data-name="Path 7" d="M172.556,56.031c.942.282,1.507.282,1.507.941,0,.941-1.538,2.009-3.577,2.009-1.193,0-2.009-1.663-2.322-1.663-.5,0-1.883,1.663-4.676,1.663-3.106,0-5.209-1.976-5.209-4.9,0-3.357,2.51-5.428,7.029-5.428a19.173,19.173,0,0,1,2.981.282V47.245c0-1.882-.848-2.918-2.354-2.918a3.538,3.538,0,0,0-2.761,1.412c-.659.754-1.067,1.631-2.385,1.631a1.354,1.354,0,0,1-1.381-1.506c0-1.82,2.416-3.545,6.621-3.545,2.416,0,4.111.659,5.021,1.82.816,1.035.879,2.6.879,4.864v5.145C171.929,55.246,172.086,55.905,172.556,56.031Zm-6.59-5.334c-2.322,0-3.64,1.1-3.64,2.886a2.752,2.752,0,0,0,3.075,2.793c2.165,0,2.886-.91,2.886-3.043V50.979A10.855,10.855,0,0,0,165.966,50.7Z" transform="translate(-99.176 -26.516)" fill="#fff"/>
    <path id="Path_8" data-name="Path 8" d="M207.082,37.163c0,.659.031.972.314.972a5.907,5.907,0,0,0,1.82-1.318c1.286-1.192,2.008-1.914,2.008-2.29,0-.409-1.192-.377-1.192-1.255,0-1.067,1.286-1.286,3.954-1.286,1.946,0,2.918.376,2.918,1.192,0,1.224-1.506.847-2.824,1.631a13.974,13.974,0,0,0-2.2,1.976c-.44.44-.691.722-.691.91,0,.314.565,1.035,1.569,2.354a33.331,33.331,0,0,0,4.488,5.115c1.066.753,2.447.5,2.447,1.569,0,.941-1,1.286-3.2,1.286a6.768,6.768,0,0,1-1.694-.157c-.879-.314-1.6-1.443-2.886-3.075-2.761-3.514-4.205-5.366-4.519-5.366-.282,0-.314.252-.314.848v.69c0,2.636.063,4.143.439,4.582.44.5,1.632.345,1.632,1.349,0,.91-1.161,1.13-3.671,1.13-2.793,0-3.985-.157-3.985-1.224,0-.722.659-.722,1.192-1,.659-.376.784-1.506.784-3.64,0-1.192-.031-2.636-.031-4.456V35.72c0-4.676-.031-6.471-.439-6.941-.251-.282-.785-.345-1.443-.565-.5-.157-.722-.282-.722-.753,0-.659.6-.91,1.758-1.318a13.234,13.234,0,0,1,3.8-.816c.691,0,.879.409.879,1.349,0,1.663-.188,3.332-.188,6.471v4.016Z" transform="translate(-125.842 -15.87)" fill="#fff"/>
    <path id="Path_9" data-name="Path 9" d="M258.345,43.616c0,1.694.094,2.667.627,2.949.722.408,1.412.314,1.412,1.161,0,.91-1.13,1.13-3.64,1.13-2.793,0-4.016-.157-4.016-1.224,0-.722.659-.722,1.192-1,.628-.345.754-1.13.754-2.51,0-.659-.031-1.412-.031-2.354V40.1c0-2.573-.031-3.922-.565-4.2-.784-.408-1.725-.345-1.725-1.13,0-.5.44-.847,1.286-1.192a14.894,14.894,0,0,1,4.11-1.066c.628,0,.816.439.816,1.349,0,.408,0,.972-.031,1.663l-.125,4.079C258.377,40.981,258.345,42.33,258.345,43.616Zm-2.071-16.953a2.184,2.184,0,0,1,2.416,2.04,2.353,2.353,0,0,1-2.6,2.1,2.126,2.126,0,0,1-2.385-1.945A2.409,2.409,0,0,1,256.274,26.663Z" transform="translate(-158.121 -16.707)" fill="#fff"/>
    <path id="Path_10" data-name="Path 10" d="M287.065,42.318a5.362,5.362,0,0,1,4.016,1.851c1.255,1.506,1.349,3.357,1.349,5.867V52.2c0,.753-.031,1.381-.031,1.945,0,1.255.094,1.946.722,2.291.534.282,1.193.282,1.193,1,0,1.067-1.193,1.192-3.922,1.192-2.573,0-3.765-.157-3.765-1.1,0-.848.69-.754,1.411-1.161.565-.314.659-1.381.659-3.326,0-5.052-.063-7.656-2.98-7.656a3.237,3.237,0,0,0-2.824,1.882c-.6,1.192-.627,3.3-.627,6.339,0,1.569.031,2.448.6,2.761.723.408,1.412.314,1.412,1.161,0,.91-1.13,1.13-3.64,1.13-2.792,0-4.016-.157-4.016-1.224,0-.722.659-.722,1.192-1,.628-.345.754-1.13.754-2.51,0-.659-.031-1.412-.031-2.354V49.911c0-2.573-.032-3.922-.566-4.2-.784-.408-1.725-.345-1.725-1.13,0-.5.439-.847,1.286-1.192a13.905,13.905,0,0,1,3.953-1c.6,0,.848.282.848,1v1.067c0,.125,0,.188.125.188a.241.241,0,0,0,.157-.063l.376-.345A5.206,5.206,0,0,1,287.065,42.318Z" transform="translate(-173.088 -26.516)" fill="#fff"/>
    <path id="Path_11" data-name="Path 11" d="M326.651,47.268c0-3.452,2.887-6.056,6.934-6.056a20.148,20.148,0,0,1,4.142.627,5.572,5.572,0,0,0,2.981-1.286,1.306,1.306,0,0,1,.691,1.035c0,.878-.66,1.757-1.946,2.416a5.439,5.439,0,0,1,.66,2.6c0,3.451-2.762,5.962-7.03,5.962a9.518,9.518,0,0,1-3.2-.5,1.963,1.963,0,0,0-.659,1.255c0,1.035,1.035,1.475,3.106,1.475,1.6,0,3.232-.346,4.927-.346,2.981,0,4.581,1.255,4.581,3.483,0,3.264-3.514,5.931-8.848,5.931-4.33,0-7.092-2.071-7.092-4.237,0-1.161.754-1.945,2.26-2.855a2.519,2.519,0,0,1-1.945-2.354c0-1.1.785-2.133,2.322-3.075A5.146,5.146,0,0,1,326.651,47.268Zm2.7,12.049c0,1.412,1.537,2.48,4.236,2.48,3.012,0,4.957-1.35,4.957-2.856,0-1-.721-1.6-2.1-1.6-.973,0-2.417.314-4.267.314a15.324,15.324,0,0,1-2.009-.125A2.329,2.329,0,0,0,329.35,59.317ZM333.3,50.5c1.788,0,3.137-1.443,3.137-3.608,0-2.228-1.318-3.671-3.106-3.671-1.632,0-2.95,1.475-2.95,3.64C330.385,49.087,331.608,50.5,333.3,50.5Z" transform="translate(-204.204 -25.41)" fill="#fff"/>
    <path id="Path_12" data-name="Path 12" d="M235.8,155.607c0-.282-.063-.408-.126-.408a10.607,10.607,0,0,0-1.192.878,6.131,6.131,0,0,1-3.766,1.381c-3.891,0-6.746-3.043-6.746-7.75,0-5.209,3.2-8.785,7.718-8.785a9.574,9.574,0,0,1,3.8.941c.188,0,.22-.282.22-.785v-1.136c0-1.444-.188-1.915-1-2.2-.753-.251-1.412-.251-1.412-.973,0-.69.659-1,1.976-1.474a9.9,9.9,0,0,1,3.263-.69c.721,0,1,.376,1,1.318,0,.534-.188,3.333-.188,9.921,0,5.366.031,8.1.471,8.409.69.5,1.945.188,1.945,1.13,0,.753-.848,1-2.479,1.537a9.587,9.587,0,0,1-2.636.5c-.6,0-.847-.314-.847-1.035Zm-.157-9.037a3.134,3.134,0,0,0-.314-1.883,4.438,4.438,0,0,0-3.388-1.6c-2.291,0-3.891,1.976-3.891,5.428,0,3.733,1.82,6.056,4.111,6.056,2.227,0,3.482-1.224,3.482-3.639Z" transform="translate(-140.336 -84.344)" fill="#fff"/>
    <rect id="Rectangle_2" data-name="Rectangle 2" width="40.731" height="40.73" transform="translate(41.015 40.99)" fill="#fff"/>
    <path id="Path_13" data-name="Path 13" d="M109.087,150.311v-41.29h41.292v41.29H109.087Zm41.012-.279v0Zm-40.452-.28h40.172v-40.17H109.647v40.17Z" transform="translate(-68.353 -68.311)" fill="#fff"/>
    <path id="Path_14" data-name="Path 14" d="M118,134.705h10.652c3.721,0,6.71,1.876,6.71,5.628a4.338,4.338,0,0,1-3.849,4.578v.064a5.411,5.411,0,0,1,4.866,5.595c0,5.661-4.038,6.776-8.745,6.776H118V134.705Zm4.261,9.094h5.056c1.875,0,3.593-.732,3.593-2.893,0-1.717-1.114-2.831-3.593-2.831h-5.056Zm0,9.794h5.531c2.577,0,4.136-.795,4.136-3.149,0-2.543-1.591-3.465-4.167-3.465h-5.5v6.614Z" transform="translate(-73.938 -84.404)" fill="#154f3c"/>
    <path id="Path_15" data-name="Path 15" d="M185.9,165a4.667,4.667,0,0,0,.6,2.7h-4.1a3.062,3.062,0,0,1-.381-1.464,8.125,8.125,0,0,1-5.248,1.844c-3.052,0-5.469-1.939-5.469-5.054,0-3.149,2.512-4.55,4.9-5.027l1.621-.317a40.077,40.077,0,0,0,4.2-.954v-.477c0-1.59-1.367-2.035-3.054-2.035-2.257,0-2.99.667-2.99,2.417l-3.879-.16c0-3.783,3.339-5.245,6.869-5.245,3.468,0,6.933.7,6.933,5.277V165Zm-3.879-5.342a6.932,6.932,0,0,1-1.845.572l-2.131.446c-1.462.286-2.67.7-2.67,2.225,0,1.209,1.112,2,2.512,2,1.813,0,4.134-.891,4.134-2.957v-2.291Z" transform="translate(-107.336 -94.759)" fill="#154f3c"/>
    <path id="Path_16" data-name="Path 16" d="M191.893,119.2h2.588l-.089.8H192.6l-.143.967a1.241,1.241,0,0,1,.831-.327,1.428,1.428,0,0,1,1.457,1.587,1.608,1.608,0,0,1-1.723,1.681,1.428,1.428,0,0,1-1.614-1.362l.953-.075a.675.675,0,0,0,.667.715c.559,0,.763-.469.763-.953,0-.613-.314-.872-.777-.872a.652.652,0,0,0-.66.443l-.79-.061Z" transform="translate(-119.935 -74.686)" fill="#154f3c"/>
    <path id="Path_17" data-name="Path 17" d="M204.006,120.27a.531.531,0,0,0-.552-.531c-.661,0-.81.864-.81,1.409h.014a1.035,1.035,0,0,1,.905-.428,1.354,1.354,0,0,1,1.369,1.525,1.486,1.486,0,0,1-1.546,1.525c-1.348,0-1.655-1.205-1.655-2.281,0-1.464.572-2.513,1.729-2.513a1.316,1.316,0,0,1,1.424,1.178Zm-1.294,1.974c0,.476.239.763.675.763s.674-.286.674-.763-.239-.763-.674-.763S202.713,121.768,202.713,122.245Z" transform="translate(-126.403 -74.549)" fill="#154f3c"/>
  </g>
</svg>
